<?xml version="1.0" standalone="no"?>
<!DOCTYPE svg PUBLIC "-//W3C//DTD SVG 20010904//EN"
 "http://www.w3.org/TR/2001/REC-SVG-20010904/DTD/svg10.dtd">
<svg version="1.0" xmlns="http://www.w3.org/2000/svg"
 width="4000.000000pt" height="4000.000000pt" viewBox="0 0 4000.000000 4000.000000"
 preserveAspectRatio="xMidYMid meet">
<metadata>
Created by potrace 1.11, written by Peter Selinger 2001-2013
</metadata>
<g transform="translate(0.000000,4000.000000) scale(0.100000,-0.100000)"
fill="#000000" stroke="none">
<path d="M33747 24715 c-1 -1 -85 -5 -187 -8 -102 -4 -194 -8 -205 -11 -11 -2
-56 -7 -100 -11 -128 -11 -278 -34 -440 -66 -637 -130 -1222 -418 -1590 -784
-150 -148 -233 -252 -339 -424 -171 -277 -296 -641 -331 -966 -4 -33 -9 -71
-11 -85 -3 -14 -7 -126 -8 -250 -4 -241 8 -392 44 -570 135 -677 608 -1147
1485 -1477 266 -99 687 -223 1150 -338 165 -41 464 -114 665 -164 755 -186
1158 -316 1471 -474 246 -124 387 -220 528 -359 200 -199 298 -379 357 -663
24 -115 30 -467 9 -585 -86 -493 -334 -814 -807 -1043 -313 -152 -715 -245
-1178 -274 -156 -9 -560 -9 -700 0 -100 7 -358 34 -410 43 -145 25 -209 36
-232 40 -61 10 -300 67 -398 95 -337 96 -714 254 -1005 422 -109 62 -292 176
-323 200 -15 12 -49 38 -77 57 -117 81 -266 205 -398 332 -63 61 -71 66 -82
50 -44 -64 -435 -712 -435 -720 0 -5 11 -17 24 -25 13 -9 29 -22 37 -29 51
-49 310 -247 437 -333 551 -376 1153 -642 1792 -794 127 -30 355 -74 445 -87
28 -3 57 -8 65 -9 9 -2 43 -6 75 -10 33 -4 68 -9 77 -11 9 -1 52 -6 95 -9 43
-4 87 -9 98 -11 49 -9 293 -18 535 -18 241 -1 363 3 565 19 101 7 240 22 285
30 14 3 43 7 65 10 607 85 1157 293 1552 589 120 90 331 294 415 401 187 240
316 498 388 779 28 108 34 138 46 221 3 22 7 45 9 52 25 77 26 594 2 773 -50
366 -158 638 -367 919 -115 154 -322 348 -502 469 -512 344 -1129 559 -2403
838 -437 95 -929 223 -1188 308 -402 132 -711 295 -902 475 -214 202 -318 405
-359 696 -16 112 -19 391 -5 505 23 195 67 344 149 515 182 378 498 643 948
794 393 132 915 186 1507 157 88 -4 162 -9 165 -11 3 -1 38 -6 79 -9 190 -17
519 -87 727 -155 328 -107 664 -280 910 -466 122 -93 131 -101 248 -217 60
-60 111 -108 115 -108 7 0 435 696 438 714 3 13 -184 162 -350 281 -331 235
-757 450 -1142 576 -227 75 -570 150 -790 174 -103 11 -151 16 -200 20 -78 7
-532 24 -538 20z"/>
<path d="M6323 24613 c-159 -383 -1168 -2796 -1177 -2818 -8 -16 -53 -124
-101 -240 -47 -115 -92 -223 -100 -240 -7 -16 -66 -156 -130 -310 -64 -154
-127 -305 -140 -335 -13 -30 -127 -302 -253 -605 -251 -600 -631 -1509 -932
-2230 -106 -253 -203 -485 -215 -515 -13 -30 -70 -167 -128 -305 -57 -137
-202 -484 -322 -770 -119 -286 -223 -533 -231 -549 -8 -16 -14 -33 -14 -37 0
-5 -11 -32 -24 -61 -25 -54 -51 -116 -67 -155 l-9 -23 488 0 487 0 89 218
c137 335 256 625 267 647 8 17 371 903 715 1740 l115 280 2070 0 2071 0 18
-40 c10 -22 108 -258 218 -525 110 -267 320 -775 466 -1130 147 -355 317 -767
379 -917 l112 -272 483 -1 483 0 -7 23 c-6 21 -154 378 -174 422 -5 11 -48
115 -96 230 -47 116 -92 224 -99 240 -8 17 -80 190 -160 385 -145 349 -259
624 -777 1870 -537 1293 -722 1738 -770 1855 -27 66 -60 145 -73 175 -13 30
-101 242 -195 470 -95 228 -178 429 -185 445 -13 28 -48 111 -161 387 -52 127
-281 679 -329 793 -18 44 -151 364 -295 710 -298 718 -381 918 -455 1095 l-52
125 -387 3 -387 2 -16 -37z m672 -1718 c147 -363 344 -847 437 -1075 93 -228
212 -518 263 -645 52 -126 125 -306 163 -400 38 -93 208 -510 377 -925 169
-415 313 -768 321 -784 8 -16 14 -33 14 -38 0 -4 -841 -8 -1869 -8 l-1869 0
75 183 c41 100 81 196 88 212 7 17 30 71 50 120 21 50 43 104 50 120 7 17 61
147 120 290 199 485 247 600 260 630 7 17 23 55 35 85 12 30 28 69 35 85 7 17
88 212 180 435 91 223 188 457 215 520 46 110 757 1831 768 1858 2 7 8 10 12
5 4 -4 127 -305 275 -668z"/>
<path d="M12259 24638 c0 -7 -1 -2084 -2 -4616 l-2 -4602 460 0 460 0 0 3767
0 3766 32 -39 c18 -21 208 -259 423 -529 215 -269 398 -499 407 -509 9 -11 30
-38 47 -60 33 -43 1178 -1478 1369 -1716 7 -8 66 -82 132 -165 66 -82 322
-404 570 -715 248 -311 650 -815 894 -1120 244 -305 456 -571 471 -590 15 -19
200 -251 411 -515 210 -264 483 -606 606 -760 123 -154 232 -290 241 -302 9
-12 105 -132 212 -267 l195 -245 400 2 400 2 0 4605 0 4605 -457 2 -458 3 -2
-3831 -3 -3830 -275 346 c-151 191 -280 352 -285 358 -6 7 -157 197 -337 422
-179 226 -356 449 -394 496 -38 48 -80 101 -93 118 -19 24 -390 491 -454 571
-7 8 -37 47 -67 85 -30 39 -59 75 -65 81 -5 6 -23 28 -40 50 -16 21 -73 92
-126 158 -53 67 -187 236 -298 376 -112 140 -216 271 -231 290 -31 39 -379
477 -422 531 -28 35 -710 893 -731 919 -84 105 -555 697 -592 745 -22 27 -293
368 -1071 1347 -155 194 -357 449 -450 566 l-168 212 -353 0 c-275 0 -353 -3
-354 -12z"/>
<path d="M25144 24613 c-9 -21 -33 -78 -54 -128 -41 -97 -307 -734 -612 -1465
-104 -250 -209 -500 -232 -555 -24 -55 -80 -190 -126 -300 -45 -110 -88 -214
-95 -230 -8 -17 -61 -145 -120 -285 -58 -140 -110 -264 -115 -275 -5 -11 -72
-171 -149 -355 -77 -184 -206 -492 -286 -685 -81 -192 -167 -399 -192 -460
-25 -60 -53 -128 -63 -150 -10 -22 -57 -134 -105 -250 -164 -394 -597 -1430
-610 -1460 -7 -16 -36 -84 -63 -150 -28 -66 -205 -491 -395 -945 -190 -454
-401 -960 -470 -1125 -69 -165 -133 -317 -141 -337 l-16 -38 488 0 487 0 179
438 c99 240 187 455 197 477 15 35 122 294 214 520 18 44 97 235 175 425 78
190 202 494 277 675 74 182 139 335 143 340 6 7 688 10 2076 10 l2068 0 62
-150 c34 -82 66 -161 72 -175 6 -14 45 -108 87 -210 42 -102 91 -221 110 -265
51 -122 576 -1392 781 -1892 l79 -193 483 0 c265 0 482 3 482 6 0 6 -423 1027
-560 1354 -49 115 -231 555 -320 770 -26 63 -174 421 -330 795 -155 374 -331
797 -390 940 -361 872 -533 1284 -544 1310 -8 17 -85 201 -171 410 -218 526
-643 1549 -1248 3005 l-264 635 -387 3 -387 2 -15 -37z m511 -1328 c54 -132
133 -328 177 -435 44 -107 113 -276 153 -375 41 -99 131 -319 200 -490 69
-170 168 -413 220 -540 176 -430 766 -1879 852 -2090 47 -115 96 -236 109
-267 13 -32 24 -60 24 -63 0 -3 -841 -5 -1869 -5 l-1869 0 75 183 c41 100 81
196 88 212 7 17 84 201 170 410 85 209 166 405 180 435 29 69 726 1755 772
1870 19 47 40 99 48 115 7 17 104 251 215 520 110 270 207 504 215 520 15 34
98 239 109 270 7 19 8 19 21 -5 7 -14 56 -133 110 -265z"/>
</g>
</svg>
